<svg xmlns="http://www.w3.org/2000/svg" width="25.5" height="20.507" viewBox="0 0 25.5 20.507" fill="#fff">
  <g id="Group_439" data-name="Group 439" transform="translate(-359 -503)">
    <path id="Path_15427" data-name="Path 15427" d="M500.988,4154.658a11.994,11.994,0,0,1-3.76-.6,1.535,1.535,0,0,0-1.508.326l-2.417,1.823a13.3,13.3,0,0,1-6.005-6l1.786-2.371a1.526,1.526,0,0,0,.376-1.55,12,12,0,0,1-.6-3.764A1.52,1.52,0,0,0,487.34,4141h-3.822a1.52,1.52,0,0,0-1.518,1.519,19.01,19.01,0,0,0,18.988,18.988,1.52,1.52,0,0,0,1.518-1.519v-3.81A1.52,1.52,0,0,0,500.988,4154.658Z" transform="translate(-123 -3638)"/>
    <path id="Path_15428" data-name="Path 15428" d="M72.887,3424H61.638a1.127,1.127,0,0,0-1.125,1.125v6.753A1.127,1.127,0,0,0,61.638,3433H72.887a1.127,1.127,0,0,0,1.125-1.125v-6.753A1.127,1.127,0,0,0,72.887,3424Zm-7.507,4.9-3.151,2.7a.225.225,0,1,1-.293-.341l3.151-2.7a.225.225,0,1,1,.293.341Zm1.768.054a1.643,1.643,0,0,1-.916-.263l-4.277-2.926a.225.225,0,0,1,.254-.372l4.277,2.926a1.259,1.259,0,0,0,1.322,0l4.506-2.929a.225.225,0,0,1,.246.377l-4.5,2.926A1.625,1.625,0,0,1,67.149,3428.951Zm5.459,2.623a.224.224,0,0,1-.317.024l-3.151-2.7a.225.225,0,1,1,.293-.341l3.151,2.7A.224.224,0,0,1,72.608,3431.574Z" transform="translate(310.487 -2921)"/>
  </g>
</svg>
