<svg xmlns="http://www.w3.org/2000/svg" width="21.948" height="21.948" viewBox="0 0 21.948 21.948" fill="#fff">
  <g id="Group_128" data-name="Group 128" transform="translate(-300 -2878)">
    <path id="Path_15421" data-name="Path 15421" d="M325.031,2893.034a.366.366,0,0,0-.389.051l-3.79,3.157v-2.876a.366.366,0,0,0-.579-.3l-4.542,3.245v-2.947a.366.366,0,0,0-.612-.271l-2.727,2.479a.366.366,0,0,0-.12.3l.529,7.653s0,.083,0,.085a.366.366,0,0,0,.366.366h11.713a.366.366,0,0,0,.366-.366v-10.242A.365.365,0,0,0,325.031,2893.034Z" transform="translate(-3.294 -4.026)"/>
    <g id="Group_127" data-name="Group 127" transform="translate(300 2878)">
      <path id="Path_15422" data-name="Path 15422" d="M307.955,2884h-6.41l-.2,2.927h6.814Z" transform="translate(-300.36 -2879.611)"/>
      <path id="Path_15423" data-name="Path 15423" d="M308.115,2889H301.2l-.2,2.926h7.318Z" transform="translate(-300.268 -2880.953)"/>
      <path id="Path_15424" data-name="Path 15424" d="M308.275,2894h-7.419l-.2,2.925h7.822Z" transform="translate(-300.175 -2882.295)"/>
      <path id="Path_15425" data-name="Path 15425" d="M308.351,2899h-7.923l-.427,6.194a.367.367,0,0,0,.365.391h8.062a.366.366,0,0,0,.343-.493Z" transform="translate(-300 -2883.637)"/>
      <path id="Path_15426" data-name="Path 15426" d="M308,2881.659l-.229-3.318a.366.366,0,0,0-.365-.341h-5.121a.366.366,0,0,0-.365.341l-.229,3.318Z" transform="translate(-300.453 -2878)"/>
    </g>
  </g>
</svg>
