<svg xmlns="http://www.w3.org/2000/svg" width="25.21" height="23.471" viewBox="0 0 25.21 23.471" fill="#fff">
  <g id="Group_125" data-name="Group 125" transform="translate(-1140 -4260)">
    <path id="Path_15414" data-name="Path 15414" d="M1164.775,4273h-24.341a.435.435,0,1,0,0,.869h24.341a.435.435,0,0,0,0-.869Z" transform="translate(0 -1.699)"/>
    <path id="Path_15415" data-name="Path 15415" d="M1142.608,4270.432a2.611,2.611,0,0,0,2.608-2.608,2.563,2.563,0,0,0-.073-.587l4.836-3.224a2.6,2.6,0,0,0,4.612-.446l5.414,1.546c0,.036-.01.069-.01.1a2.626,2.626,0,1,0,.188-.957l-5.414-1.547c0-.035.01-.068.01-.1a2.608,2.608,0,0,0-5.216,0,2.565,2.565,0,0,0,.073.588l-4.836,3.225a2.605,2.605,0,1,0-2.192,4.011Z"/>
    <path id="Path_15416" data-name="Path 15416" d="M1162.6,4275a2.611,2.611,0,0,0-2.608,2.608,2.575,2.575,0,0,0,.073.588l-4.836,3.225a2.6,2.6,0,0,0-4.612.446l-5.414-1.547c0-.035.01-.068.01-.1a2.625,2.625,0,1,0-.188.958l5.414,1.546c0,.036-.01.069-.01.1a2.608,2.608,0,0,0,5.216,0,2.57,2.57,0,0,0-.073-.587l4.836-3.224A2.606,2.606,0,1,0,1162.6,4275Z" transform="translate(0 -1.96)"/>
  </g>
</svg>
