<svg id="Group_132" data-name="Group 132" xmlns="http://www.w3.org/2000/svg" width="19.642" height="24.437" viewBox="0 0 19.642 24.437" fill="#fff">
  <g id="Group_130" data-name="Group 130">
    <path id="Path_15408" data-name="Path 15408" d="M801.393,3900h-1.228v3.666a1.245,1.245,0,1,1-.818-1.147V3900h-3.273v3.666a1.245,1.245,0,1,1-.818-1.147V3900h-3.273v3.666a1.245,1.245,0,1,1-.818-1.147V3900h-3.274v3.666a1.245,1.245,0,1,1-.818-1.147V3900h-2.864a1.226,1.226,0,0,0-1.228,1.222v21.992a1.226,1.226,0,0,0,1.228,1.222h17.186a1.227,1.227,0,0,0,1.228-1.222v-21.992A1.226,1.226,0,0,0,801.393,3900Zm-5.729,21.993h-5.729a.407.407,0,1,1,0-.814h5.729a.407.407,0,1,1,0,.814Zm1.637-2.444h-9a.407.407,0,1,1,0-.814h9a.407.407,0,1,1,0,.814Zm.409-2.443h-9.821a.408.408,0,0,1-.409-.408,2.581,2.581,0,0,1,1.966-2.507l1.521-.379.094-.375a3.162,3.162,0,0,1-.743-1.5.815.815,0,0,1-.534-.663l-.106-.851a.826.826,0,0,1,.426-.832c-.029-.26-.062-.59-.062-.759,0-.854.254-1.833,2.2-1.892a3.027,3.027,0,0,1,1.679-.428,1.975,1.975,0,0,1,1.781.822,1.165,1.165,0,0,1-.044,1.564l-.11.109-.029.6a.856.856,0,0,1,.2.168.824.824,0,0,1,.2.649l-.106.85a.831.831,0,0,1-.483.653,3.141,3.141,0,0,1-.784,1.547l.084.335,1.522.379a2.581,2.581,0,0,1,1.966,2.506A.409.409,0,0,1,797.71,3917.105Z" transform="translate(-782.979 -3900)"/>
  </g>
</svg>
