<svg xmlns="http://www.w3.org/2000/svg" width="24" height="24" viewBox="0 0 24 24" fill="#fff">
  <g id="Group_124" data-name="Group 124" transform="translate(-1139.979 -3780)">
    <path id="Path_15409" data-name="Path 15409" d="M1150.379,3790a2.534,2.534,0,0,0-1.922-2.461l-1.487-.371-.082-.331a3.081,3.081,0,0,0,.766-1.518.817.817,0,0,0,.472-.642l.1-.835a.823.823,0,0,0-.2-.638.789.789,0,0,0-.2-.164l.029-.587.109-.109a1.149,1.149,0,0,0,.042-1.536,1.925,1.925,0,0,0-1.741-.807,2.945,2.945,0,0,0-1.641.42c-1.9.058-2.153,1.02-2.153,1.858,0,.166.032.49.061.745a.829.829,0,0,0-.218.175.819.819,0,0,0-.2.643l.1.834a.8.8,0,0,0,.522.653,3.109,3.109,0,0,0,.726,1.469l-.092.37-1.487.371a2.535,2.535,0,0,0-1.922,2.462.4.4,0,0,0,.4.4h9.6A.4.4,0,0,0,1150.379,3790Z"/>
    <path id="Path_15410" data-name="Path 15410" d="M1165.457,3787.538l-1.487-.371-.083-.331a3.081,3.081,0,0,0,.766-1.518.817.817,0,0,0,.472-.642l.1-.835a.823.823,0,0,0-.2-.638.786.786,0,0,0-.2-.164l.029-.587.109-.109a1.149,1.149,0,0,0,.042-1.536,1.925,1.925,0,0,0-1.741-.807,2.945,2.945,0,0,0-1.641.42c-1.9.058-2.153,1.02-2.153,1.858,0,.166.032.49.061.745a.829.829,0,0,0-.218.175.819.819,0,0,0-.2.643l.1.834a.8.8,0,0,0,.522.653,3.11,3.11,0,0,0,.726,1.469l-.092.37-1.487.371a2.535,2.535,0,0,0-1.922,2.462.4.4,0,0,0,.4.4h9.6a.4.4,0,0,0,.4-.4A2.534,2.534,0,0,0,1165.457,3787.538Z" transform="translate(-3.4)"/>
    <path id="Path_15411" data-name="Path 15411" d="M1156.121,3804.165l-1.63-.407-.1-.394a3.311,3.311,0,0,0,.838-1.659.853.853,0,0,0,.508-.677l.113-.9a.853.853,0,0,0-.426-.846l.032-.668.126-.126a1.213,1.213,0,0,0,.043-1.623,2.057,2.057,0,0,0-1.858-.859,3.161,3.161,0,0,0-1.768.455c-2.042.06-2.308,1.086-2.308,1.98,0,.183.037.549.067.826a.869.869,0,0,0-.246.192.855.855,0,0,0-.206.671l.113.9a.835.835,0,0,0,.561.687,3.326,3.326,0,0,0,.8,1.606l-.109.438-1.63.407a2.712,2.712,0,0,0-2.057,2.635.4.4,0,0,0,.4.4h10.4a.4.4,0,0,0,.4-.4A2.711,2.711,0,0,0,1156.121,3804.165Z" transform="translate(-1.4 -3.2)"/>
    <path id="Path_15412" data-name="Path 15412" d="M1147.779,3798.2a.4.4,0,0,0,.282-.683l-2.4-2.4a.4.4,0,0,0-.566.566l2.4,2.4A.4.4,0,0,0,1147.779,3798.2Z" transform="translate(-1 -3)"/>
    <path id="Path_15413" data-name="Path 15413" d="M1162.5,3795.117l-2.4,2.4a.4.4,0,0,0,.566.566l2.4-2.4a.4.4,0,1,0-.566-.566Z" transform="translate(-4 -3)"/>
  </g>
</svg>
