<svg xmlns="http://www.w3.org/2000/svg" width="29.137" height="27" viewBox="0 0 29.137 27" fill="#fff">
  <path id="Path_15533" data-name="Path 15533" d="M1165.977,3584.231a11.4,11.4,0,0,0,.146-1.731,11.531,11.531,0,0,0-7.075-10.588c.013-.138.042-.271.042-.412a4.521,4.521,0,0,0-9.042,0c0,.141.029.274.042.412a11.532,11.532,0,0,0-7.075,10.588,11.335,11.335,0,0,0,.146,1.731,4.492,4.492,0,1,0,4.515,7.484,11.541,11.541,0,0,0,13.787,0,4.5,4.5,0,1,0,4.515-7.484Zm-17.667,6.709a4.453,4.453,0,0,0,.732-2.44,4.516,4.516,0,0,0-4.521-4.5c-.129,0-.249.027-.376.038a10.39,10.39,0,0,1-.127-1.538,10.529,10.529,0,0,1,6.277-9.591,4.5,4.5,0,0,0,8.544,0,10.532,10.532,0,0,1,6.277,9.591,10.3,10.3,0,0,1-.128,1.538c-.126-.011-.246-.038-.375-.038a4.516,4.516,0,0,0-4.521,4.5,4.453,4.453,0,0,0,.732,2.44,10.536,10.536,0,0,1-12.517,0Z" transform="translate(-1140 -3567)"/>
</svg>
