<svg xmlns="http://www.w3.org/2000/svg" width="73.503" height="68.39" viewBox="0 0 73.503 68.39">
  <g id="Group_336" data-name="Group 336" transform="translate(-1228 -353)">
    <ellipse id="Ellipse_133" data-name="Ellipse 133" cx="1.229" cy="1.229" rx="1.229" ry="1.229" transform="translate(1235.343 357.688)" fill="none" stroke="#000" stroke-width="1"/>
    <ellipse id="Ellipse_134" data-name="Ellipse 134" cx="1.229" cy="1.229" rx="1.229" ry="1.229" transform="translate(1242.72 357.688)" fill="none" stroke="#000" stroke-width="1"/>
    <ellipse id="Ellipse_135" data-name="Ellipse 135" cx="1.229" cy="1.229" rx="1.229" ry="1.229" transform="translate(1250.097 357.688)" fill="none" stroke="#000" stroke-width="1"/>
    <path id="Rectangle_847" data-name="Rectangle 847" d="M2,0H15.738a1,1,0,0,1,1,1V54a1,1,0,0,1-1,1H5a5,5,0,0,1-5-5V2A2,2,0,0,1,2,0Z" transform="translate(1228 365.393)" fill="#00c39e"/>
    <rect id="Rectangle_848" data-name="Rectangle 848" width="13.152" height="17.934" transform="translate(1282.998 370.175)" fill="#00c39e"/>
    <g id="Group_334" data-name="Group 334" transform="translate(1229.195 354)">
      <line id="Line_127" data-name="Line 127" y2="56.194" transform="translate(15.543 10.197)" fill="none" stroke="#000" stroke-linecap="round" stroke-linejoin="round" stroke-width="2"/>
      <line id="Line_128" data-name="Line 128" x2="34.672" transform="translate(15.543 30.522)" fill="none" stroke="#000" stroke-linecap="round" stroke-linejoin="round" stroke-width="2"/>
      <line id="Line_129" data-name="Line 129" y2="56.194" transform="translate(50.215 10.197)" fill="none" stroke="#000" stroke-linecap="round" stroke-linejoin="round" stroke-width="2"/>
      <rect id="Rectangle_452" data-name="Rectangle 452" width="13.152" height="17.934" transform="translate(53.802 16.175)" fill="none" stroke="#000" stroke-linecap="round" stroke-linejoin="round" stroke-width="2"/>
      <line id="Line_130" data-name="Line 130" x2="8.369" transform="translate(53.802 42.478)" fill="none" stroke="#000" stroke-linecap="round" stroke-linejoin="round" stroke-width="2"/>
      <line id="Line_131" data-name="Line 131" x2="9.565" transform="translate(53.802 49.652)" fill="none" stroke="#000" stroke-linecap="round" stroke-linejoin="round" stroke-width="2"/>
      <path id="Path_15517" data-name="Path 15517" d="M491.808,779.569a6.262,6.262,0,0,1-6.2,6.322H426.7a6.262,6.262,0,0,1-6.2-6.322V725.822a6.262,6.262,0,0,1,6.2-6.322h58.905a6.262,6.262,0,0,1,6.2,6.322Z" transform="translate(-420.5 -719.5)" fill="none" stroke="#000" stroke-linecap="round" stroke-linejoin="round" stroke-width="2"/>
      <line id="Line_132" data-name="Line 132" x2="70.541" transform="translate(0 10.197)" fill="none" stroke="#000" stroke-linecap="round" stroke-linejoin="round" stroke-width="2"/>
    </g>
    <g id="Group_335" data-name="Group 335" transform="translate(1254.414 368.979)">
      <path id="Path_15315" data-name="Path 15315" d="M214.287,244.35l-.888.688-5.192,4.017.69.891,5.19-4.018,1.14,1.473.689.889.89-.688,2.579-2,.72.928.973-1.851.97-1.848-2.033.477-2.035.476.717.927-2.579,2-1.14-1.472-.69-.89" transform="translate(-208.207 -242.833)" fill-rule="evenodd"/>
      <rect id="Rectangle_78" data-name="Rectangle 78" width="2.208" height="1.764" transform="translate(0.055 9.042)"/>
      <rect id="Rectangle_79" data-name="Rectangle 79" width="2.207" height="9.01" transform="translate(14.041 1.797)"/>
      <rect id="Rectangle_80" data-name="Rectangle 80" width="2.207" height="6.184" transform="translate(11.245 4.622)"/>
      <rect id="Rectangle_81" data-name="Rectangle 81" width="2.209" height="4.587" transform="translate(8.446 6.219)"/>
      <rect id="Rectangle_82" data-name="Rectangle 82" width="2.207" height="3.585" transform="translate(5.65 7.221)"/>
      <rect id="Rectangle_83" data-name="Rectangle 83" width="2.208" height="2.335" transform="translate(2.852 8.471)"/>
    </g>
  </g>
</svg>
