<svg xmlns="http://www.w3.org/2000/svg" width="66.891" height="66.891" viewBox="0 0 66.891 66.891">
  <g id="Group_205" data-name="Group 205" transform="translate(-380.418 -647.851)">
    <g id="Group_51" data-name="Group 51" transform="translate(382.33 667.656)">
      <path id="Path_15358" data-name="Path 15358" d="M1089.4,441.909h-42.659V411.822l42.659-15.444Z" transform="translate(-1046.745 -396.378)" fill="#00c39e"/>
    </g>
    <g id="Group_50" data-name="Group 50" transform="translate(380.668 648.101)">
      <path id="Path_15355" data-name="Path 15355" d="M1102.341,702.505a.977.977,0,0,0,.977-.977V689.72a.978.978,0,0,0-.444-.819l-19.354-12.6v-11.54a.978.978,0,0,0-1.31-.919l-10.54,3.816-1.232-19.751a.977.977,0,0,0-.976-.916h-7.457a.977.977,0,0,0-.976.916l-1.507,24.149-4.235,1.533-1.6-25.682a.977.977,0,0,0-.976-.916h-7.457a.977.977,0,0,0-.976.916l-.365,5.842a.977.977,0,1,0,1.951.122l.308-4.926h5.621l1.582,25.337-8.988,3.254.663-10.629a.977.977,0,1,0-1.951-.121l-.717,11.476-4.81,1.741a.977.977,0,0,0-.645.919V712.4a.977.977,0,0,0,.977.977h64.436a.977.977,0,0,0,.977-.977v-5.647a.977.977,0,1,0-1.954,0v4.67h-6.291V694.04a.978.978,0,0,0-.977-.977h-10.575V678.634l17.843,11.616v11.278A.977.977,0,0,0,1102.341,702.505Zm-39.417-53.56h5.621l1.211,19.406-8.23,2.979Zm-24.042,32.662,42.684-15.453v10.693h0v34.579h-42.684Zm54.236,13.409v16.41h-9.6v-16.41Z" transform="translate(-1036.928 -646.991)" fill="#012d3a" stroke="#000" stroke-width="0.5"/>
      <path id="Path_15356" data-name="Path 15356" d="M1049.466,671.548l.062,0a.978.978,0,0,0,.975-.916l.156-2.507a.977.977,0,0,0-1.951-.122l-.157,2.507A.977.977,0,0,0,1049.466,671.548Z" transform="translate(-1042.059 -655.866)" fill="#012d3a" stroke="#000" stroke-width="0.5"/>
      <path id="Path_15357" data-name="Path 15357" d="M1081.441,717.672h-34.109a.977.977,0,0,0-.977.977v6.6a.977.977,0,0,0,.977.977h34.109a.977.977,0,0,0,.977-.977v-6.6A.977.977,0,0,0,1081.441,717.672Zm-16.077,1.955h6.573v4.646h-6.573Zm-1.955,4.646h-6.572v-4.646h6.572Zm-15.1-4.646h6.573v4.646h-6.573Zm32.154,4.646h-6.573v-4.646h6.573Z" transform="translate(-1041.091 -678.201)" fill="#012d3a" stroke="#000" stroke-width="0.5"/>
    </g>
  </g>
</svg>
