<svg xmlns="http://www.w3.org/2000/svg" width="58.225" height="83.154" viewBox="0 0 58.225 83.154">
  <g id="Group_206" data-name="Group 206" transform="translate(-603.8 -648.101)">
    <g id="Group_70" data-name="Group 70" transform="translate(615.371 648.101)">
      <g id="Group_24" data-name="Group 24" transform="translate(0 0)">
        <path id="Path_359" data-name="Path 359" d="M5.861,55.964a1.111,1.111,0,0,0,1.111-1.111v-2.91a1.111,1.111,0,0,0-2.222,0v2.91A1.111,1.111,0,0,0,5.861,55.964Z" transform="translate(-4.75 -21.582)"/>
        <path id="Path_360" data-name="Path 360" d="M42.478,12.972a1.111,1.111,0,1,0,0-2.222H34.861a1.111,1.111,0,1,0,0,2.222Z" transform="translate(-15.342 -6.941)"/>
        <path id="Path_361" data-name="Path 361" d="M41.669,113.75H37.861a1.111,1.111,0,1,0,0,2.222h3.809a1.111,1.111,0,1,0,0-2.222Z" transform="translate(-16.438 -44.562)"/>
        <path id="Path_362" data-name="Path 362" d="M20.961,66.451a1.111,1.111,0,0,0-1.111,1.111V70.6a1.111,1.111,0,0,0,1.111,1.111H46.224A1.111,1.111,0,0,0,47.335,70.6V62.982a8.734,8.734,0,0,0-8.567-8.72,6.872,6.872,0,0,0,2.283-5.112V44.479a4.929,4.929,0,0,0,1.808-2.046l.082-.17a3.65,3.65,0,0,0-3.294-5.223H31.809a6.552,6.552,0,0,0-6.544,6.544v2.877a2.155,2.155,0,0,0,.87,1.723v.966a6.87,6.87,0,0,0,2.283,5.111,8.76,8.76,0,0,0-8.541,8.043A1.111,1.111,0,0,0,20.9,63.5c.029,0,.058,0,.086,0a1.11,1.11,0,0,0,1.106-1.026,6.532,6.532,0,0,1,6.487-6h.155a4.912,4.912,0,0,0,9.719,0h.155a6.513,6.513,0,0,1,6.506,6.506v6.506H22.072V67.562A1.111,1.111,0,0,0,20.961,66.451Zm6.525-22.867a4.328,4.328,0,0,1,4.323-4.323h7.838A1.428,1.428,0,0,1,40.936,41.3l-.084.175a2.745,2.745,0,0,1-2.474,1.566h-7.24a3.408,3.408,0,0,0-2.531,1.1,5.486,5.486,0,0,0-1.122,1.991Zm.87,4.856a2.121,2.121,0,0,0,1.186-1.414,3.336,3.336,0,0,1,.713-1.388,1.186,1.186,0,0,1,.883-.372h7.24c.152,0,.3-.019.451-.032v3.917a4.672,4.672,0,0,1-2.046,3.864l-.01.007a4.635,4.635,0,0,1-2.609.8H33.021a4.635,4.635,0,0,1-2.609-.8l-.01-.007a4.672,4.672,0,0,1-2.046-3.864Zm5.237,10.01a2.7,2.7,0,0,1-2.7-2.7V55.7a6.834,6.834,0,0,0,2.126.34h1.143a6.834,6.834,0,0,0,2.126-.34v.048A2.7,2.7,0,0,1,33.592,58.45Z" transform="translate(-10.265 -16.544)"/>
        <path id="Path_363" data-name="Path 363" d="M54.319,78.172a1.111,1.111,0,0,0,1.111-1.111V75.942a4.873,4.873,0,0,0-1-2.972,1.111,1.111,0,1,0-1.768,1.344,2.668,2.668,0,0,1,.548,1.627v1.118A1.111,1.111,0,0,0,54.319,78.172Z" transform="translate(-22.166 -29.507)"/>
        <path id="Path_364" data-name="Path 364" d="M63.815,7.765A3.019,3.019,0,0,0,60.8,4.75H20.176a3.019,3.019,0,0,0-3.015,3.015v23.28a1.111,1.111,0,0,0,2.222,0V7.765a.8.8,0,0,1,.793-.793H60.8a4.715,4.715,0,0,1,.669,1.543c.154,7.642.015,33.932,0,24.27l.124,37.344H19.383V42.359a1.111,1.111,0,0,0-2.222,0V76.953a3.019,3.019,0,0,0,3.015,3.015H60.8a3.019,3.019,0,0,0,3.015-3.015V7.765ZM60.8,77.746H20.176a.8.8,0,0,1-.793-.793v-4.6H61.594v4.6A.8.8,0,0,1,60.8,77.746Z" transform="translate(-17.161 -4.75)"/>
      </g>
    </g>
    <g id="Group_71" data-name="Group 71" transform="translate(605.056 670.54)">
      <path id="Path_15375" data-name="Path 15375" d="M-125.24,502.675a1.856,1.856,0,0,0-.679-1.748c-3.559-2.819-7.139-5.642-10.7-8.461a1.164,1.164,0,0,0-1.4-.038l-6.937,4.808a1.532,1.532,0,0,1-1.8-.005,39.749,39.749,0,0,1-8.9-9,40.17,40.17,0,0,1-6.145-13.092,9.811,9.811,0,0,0,4.935-3.975.076.076,0,0,1,.031-.036,8.531,8.531,0,0,0,1.133-5.444c-.38-3.148-1.185-9.26-1.814-10.324-.108-.178-.237-.361-.237-.361a3.716,3.716,0,0,0-2.03-1.449c-.281-.09-.588-.165-.915-.245a17.655,17.655,0,0,0-2.407-.522,6.357,6.357,0,0,0-4.388,1.464,16.658,16.658,0,0,0-4.13,4.5c-.111.19-.218.358-.329.548a15.06,15.06,0,0,0-1.838,8.956,49.728,49.728,0,0,0,2.121,10.312,52.661,52.661,0,0,0,7.033,14.068,48.59,48.59,0,0,0,10.083,11.692,43.607,43.607,0,0,0,12.329,7.1,15.064,15.064,0,0,0,6.7.682,14.087,14.087,0,0,0,3.61-.939,10.578,10.578,0,0,0,5.931-5.746l.015-.062A12.593,12.593,0,0,0-125.24,502.675Z" transform="translate(173.862 -452.761)" fill="#00c39e"/>
      <path id="Path_15376" data-name="Path 15376" d="M-125.24,502.675a1.856,1.856,0,0,0-.679-1.748c-3.559-2.819-7.139-5.642-10.7-8.461a1.164,1.164,0,0,0-1.4-.038l-6.937,4.808a1.532,1.532,0,0,1-1.8-.005,39.749,39.749,0,0,1-8.9-9,40.17,40.17,0,0,1-6.145-13.092,9.811,9.811,0,0,0,4.935-3.975.076.076,0,0,1,.031-.036,8.531,8.531,0,0,0,1.133-5.444c-.38-3.148-1.185-9.26-1.814-10.324-.108-.178-.237-.361-.237-.361a3.716,3.716,0,0,0-2.03-1.449c-.281-.09-.588-.165-.915-.245a17.655,17.655,0,0,0-2.407-.522,6.357,6.357,0,0,0-4.388,1.464,16.658,16.658,0,0,0-4.13,4.5c-.111.19-.218.358-.329.548a15.06,15.06,0,0,0-1.838,8.956,49.728,49.728,0,0,0,2.121,10.312,52.661,52.661,0,0,0,7.033,14.068,48.59,48.59,0,0,0,10.083,11.692,43.607,43.607,0,0,0,12.329,7.1,15.064,15.064,0,0,0,6.7.682,14.087,14.087,0,0,0,3.61-.939,10.578,10.578,0,0,0,5.931-5.746l.015-.062A12.593,12.593,0,0,0-125.24,502.675Z" transform="translate(173.862 -452.761)" fill="none" stroke="#000" stroke-miterlimit="10" stroke-width="2.5"/>
    </g>
  </g>
</svg>
