<svg xmlns="http://www.w3.org/2000/svg" width="85.369" height="77.735" viewBox="0 0 85.369 77.735">
  <g id="Group_208" data-name="Group 208" transform="translate(-1245.709 -646)">
    <g id="Group_48" data-name="Group 48" transform="translate(1256.409 660.619)">
      <path id="Path_15345" data-name="Path 15345" d="M800.357,39.865l20.93-20.93,20.93,20.93Z" transform="translate(-800.357 -18.935)" fill="#00c39e"/>
    </g>
    <g id="Group_47" data-name="Group 47" transform="translate(1245.809 660.619)">
      <path id="Path_15340" data-name="Path 15340" d="M735.247-55.507h-2.385a.928.928,0,0,0-.928.928.928.928,0,0,0,.928.928h2.385a.927.927,0,0,0,.928-.928A.927.927,0,0,0,735.247-55.507Z" transform="translate(-689.662 116.668)" fill="#1d1d1b" stroke="#000" stroke-width="0.2"/>
      <path id="Path_15341" data-name="Path 15341" d="M714.274-136.45H712.1v-23.6a.927.927,0,0,0-.928-.928H693.991l-9.642-9.643a.928.928,0,0,0-1.312,0l-9.642,9.643H667.2a.927.927,0,0,0-.928.928.928.928,0,0,0,.928.928h4.335l-9.161,9.16H658.62a4.586,4.586,0,0,1-4.58-4.581,4.585,4.585,0,0,1,4.58-4.58h4.515a.928.928,0,0,0,.928-.928.928.928,0,0,0-.928-.928H658.62a6.443,6.443,0,0,0-6.435,6.434h0v40.232a6.443,6.443,0,0,0,6.435,6.435H690.8a.927.927,0,0,0,.928-.928.927.927,0,0,0-.928-.928H658.62a4.585,4.585,0,0,1-4.58-4.58V-150.03a6.416,6.416,0,0,0,4.58,1.922h51.628v11.658h-12.7a7.539,7.539,0,0,0-7.53,7.53,7.539,7.539,0,0,0,7.53,7.53h12.7v11.658h-8.112a.927.927,0,0,0-.928.928.927.927,0,0,0,.928.928h9.04a.927.927,0,0,0,.928-.928V-121.39h2.171a.927.927,0,0,0,.928-.928v-13.2A.927.927,0,0,0,714.274-136.45Zm-4.026-22.674v9.16h-5.241l-9.161-9.16Zm-26.555-9.53,18.69,18.691h-4.629l-9.78-9.78a.927.927,0,0,0-1.312,0,4.206,4.206,0,0,1-5.94,0,.954.954,0,0,0-1.312,0l-9.78,9.78H665Zm11.438,18.691H672.255l7.861-7.862a6.011,6.011,0,0,0,3.576,1.168,6.011,6.011,0,0,0,3.577-1.168Zm18.215,26.718h-15.8a5.681,5.681,0,0,1-5.675-5.675,5.681,5.681,0,0,1,5.675-5.675h15.8Z" transform="translate(-652.184 170.893)" fill="#1d1d1b" stroke="#000" stroke-width="0.2"/>
      <path id="Path_15342" data-name="Path 15342" d="M734.527-98.611a3.664,3.664,0,0,0-3.66,3.66,3.664,3.664,0,0,0,3.66,3.66,3.664,3.664,0,0,0,3.66-3.66A3.664,3.664,0,0,0,734.527-98.611Zm0,5.464a1.806,1.806,0,0,1-1.8-1.8,1.806,1.806,0,0,1,1.8-1.8,1.807,1.807,0,0,1,1.8,1.8A1.807,1.807,0,0,1,734.527-93.147Z" transform="translate(-689.16 136.925)" fill="#1d1d1b" stroke="#000" stroke-width="0.2"/>
      <path id="Path_15343" data-name="Path 15343" d="M663.81-93.457a.927.927,0,0,0-.928.928v11a.927.927,0,0,0,.928.928.928.928,0,0,0,.928-.928v-11A.928.928,0,0,0,663.81-93.457Z" transform="translate(-657.211 134.503)" fill="#1d1d1b" stroke="#000" stroke-width="0.2"/>
      <path id="Path_15344" data-name="Path 15344" d="M664.737-104.985a.928.928,0,0,0-.928-.928.927.927,0,0,0-.928.928v2.762a.927.927,0,0,0,.928.928.928.928,0,0,0,.928-.928Z" transform="translate(-657.211 140.356)" fill="#1d1d1b" stroke="#000" stroke-width="0.2"/>
    </g>
    <g id="Group_49" data-name="Group 49" transform="translate(1294.466 646.934)">
      <path id="Path_15346" data-name="Path 15346" d="M338.119,60.88a.531.531,0,0,0,.743-.113c.209-.284.43-.565.655-.835a.532.532,0,0,0-.816-.682c-.239.286-.473.585-.7.887A.532.532,0,0,0,338.119,60.88Z" transform="translate(-334.505 -52.768)" fill="#1d1d1b" stroke="#000" stroke-width="1"/>
      <path id="Path_15347" data-name="Path 15347" d="M359.2,87.7a.533.533,0,0,0-.743.112,17,17,0,0,1-28.695-18.049.531.531,0,1,0-.939-.5,18.059,18.059,0,0,0,30.489,19.179A.531.531,0,0,0,359.2,87.7Z" transform="translate(-326.718 -59.678)" fill="#1d1d1b" stroke="#000" stroke-width="1"/>
      <path id="Path_15348" data-name="Path 15348" d="M357.57,38.346a17.994,17.994,0,0,0-12.3,4.841.531.531,0,1,0,.724.778,17,17,0,0,1,26.4,20.753.531.531,0,0,0,.2.724.525.525,0,0,0,.26.068.531.531,0,0,0,.464-.271,18.061,18.061,0,0,0-15.75-26.893Z" transform="translate(-339.514 -38.346)" fill="#1d1d1b" stroke="#000" stroke-width="1"/>
    </g>
    <text id="_" data-name="?" transform="translate(1306 677)" fill="#1d1d1b" font-size="29" font-family="OpenSans-Bold, Open Sans" font-weight="700"><tspan x="0" y="0">?</tspan></text>
  </g>
</svg>
