<svg xmlns="http://www.w3.org/2000/svg" width="52.5" height="52.5" viewBox="0 0 52.5 52.5">
  <g id="Group_356" data-name="Group 356" transform="translate(-359.75 -1919.586)">
    <path id="Path_15574" data-name="Path 15574" d="M366.125,1923.625c0,.866,2.78,1.709,3.287,2.41.961,1.334-1.253,3.66-.877,5.259.281,1.192,2.789,4.267,3.506,5.259,2.717,3.771,13.147,7.624,13.147,12.271,0,.775-2.629,1.855-2.629,2.63,0,2.324,6.121,3.99,7.012,6.135.419,1.011-.121,3.334-.438,4.383-.571,1.89-4.312,6.351-4.312,6.351" transform="translate(4.236 2.353)" fill="none" stroke="#000" stroke-linecap="round" stroke-linejoin="round" stroke-width="1.5"/>
    <path id="Path_15575" data-name="Path 15575" d="M374.58,1920.5c0,1.1-.419,3.371,0,4.382.3.715.978,2.629,1.753,2.629s1.855-1.753,2.629-1.753,2,1.3,2.629,1.753c.992.717,3.31.544,3.506,1.753.125.764-1.737,1.562-2.191,2.191-1.432,1.988-1.86,7.038-3.944,8.327-.933.575-3.963-.135-4.382.876-.891,2.146,3.113,5.245,5.259,6.135,1.52.629,6.369-.629,7.888,0,.715.3,1.094,1.784,1.753,2.191,1.474.912,5.124.785,6.135,2.191,1.281,1.778,0,9.641,0,9.641" transform="translate(10.462 0)" fill="none" stroke="#000" stroke-linecap="round" stroke-linejoin="round" stroke-width="1.5"/>
    <circle id="Ellipse_138" data-name="Ellipse 138" cx="25.5" cy="25.5" r="25.5" transform="translate(360.5 1920.336)" fill="none" stroke="#000" stroke-linecap="round" stroke-linejoin="round" stroke-width="1.5"/>
  </g>
</svg>
