<svg xmlns="http://www.w3.org/2000/svg" width="51.5" height="53.5" viewBox="0 0 51.5 53.5">
  <g id="Group_358" data-name="Group 358" transform="translate(-180.75 -3359.75)">
    <line id="Line_254" data-name="Line 254" x2="30" transform="translate(201.5 3367.5)" fill="none" stroke="#000" stroke-linecap="round" stroke-linejoin="round" stroke-width="1.5"/>
    <line id="Line_255" data-name="Line 255" x2="30" transform="translate(201.5 3403.5)" fill="none" stroke="#000" stroke-linecap="round" stroke-linejoin="round" stroke-width="1.5"/>
    <line id="Line_256" data-name="Line 256" x2="9" transform="translate(211.5 3364.5)" fill="none" stroke="#000" stroke-linecap="round" stroke-linejoin="round" stroke-width="1.5"/>
    <rect id="Rectangle_874" data-name="Rectangle 874" transform="translate(224.5 3364.5)" fill="none" stroke="#000" stroke-linecap="round" stroke-linejoin="round" stroke-width="1.5"/>
    <line id="Line_257" data-name="Line 257" x2="16" transform="translate(185.5 3374.5)" fill="none" stroke="#000" stroke-linecap="round" stroke-linejoin="round" stroke-width="1.5"/>
    <line id="Line_258" data-name="Line 258" x2="20" transform="translate(181.5 3385.5)" fill="none" stroke="#000" stroke-linecap="round" stroke-linejoin="round" stroke-width="1.5"/>
    <line id="Line_259" data-name="Line 259" x2="16" transform="translate(185.5 3396.5)" fill="none" stroke="#000" stroke-linecap="round" stroke-linejoin="round" stroke-width="1.5"/>
    <path id="Path_15578" data-name="Path 15578" d="M201.224,3363.5a19.724,19.724,0,1,0,0,39.448Z" transform="translate(0 2.379)" fill="none" stroke="#000" stroke-linecap="round" stroke-linejoin="round" stroke-width="1.5"/>
    <path id="Path_15579" data-name="Path 15579" d="M197.259,3363.5c-5.942,0-10.759,8.831-10.759,19.724s4.816,19.724,10.759,19.724Z" transform="translate(3.966 2.379)" fill="none" stroke="#000" stroke-linecap="round" stroke-linejoin="round" stroke-width="1.5"/>
    <rect id="Rectangle_875" data-name="Rectangle 875" width="30" height="52" rx="3" transform="translate(201.5 3360.5)" fill="none" stroke="#000" stroke-linecap="round" stroke-linejoin="round" stroke-width="1.5"/>
    <ellipse id="Ellipse_139" data-name="Ellipse 139" cx="1" cy="0.5" rx="1" ry="0.5" transform="translate(215.5 3407.5)" fill="none" stroke="#000" stroke-linecap="round" stroke-linejoin="round" stroke-width="1.5"/>
  </g>
</svg>
