<svg xmlns="http://www.w3.org/2000/svg" width="95.505" height="95.5" viewBox="0 0 95.505 95.5">
  <g id="Group_361" data-name="Group 361" transform="translate(-1259.745 -3719.75)">
    <g id="Group_360" data-name="Group 360" transform="translate(1322.086 3782.086)">
      <g id="Group_359" data-name="Group 359">
        <path id="Path_15580" data-name="Path 15580" d="M1284.5,3739.5v16.207h16.207A16.206,16.206,0,0,0,1284.5,3739.5Z" transform="translate(-1268.293 -3739.5)" fill="none" stroke="#000" stroke-linecap="round" stroke-linejoin="round" stroke-width="1.5"/>
        <path id="Path_15581" data-name="Path 15581" d="M1294.086,3740.5a14.586,14.586,0,1,0,14.586,14.586" transform="translate(-1279.5 -3737.259)" fill="none" stroke="#000" stroke-linecap="round" stroke-linejoin="round" stroke-width="1.5"/>
      </g>
    </g>
    <circle id="Ellipse_140" data-name="Ellipse 140" cx="7.653" cy="7.653" r="7.653" transform="translate(1296.85 3724.581)" fill="none" stroke="#000" stroke-linecap="round" stroke-linejoin="round" stroke-width="1.5"/>
    <path id="Path_15582" data-name="Path 15582" d="M1284.81,3796.569l2.373-31.766h1.54a4.425,4.425,0,0,0,4.159-5.1l-2.684-23.25a8.646,8.646,0,0,0-8.318-7.951h-10.346a8.646,8.646,0,0,0-8.317,7.951l-2.684,23.25a4.425,4.425,0,0,0,4.158,5.1h1.539l2.373,31.766Z" transform="translate(0 17.931)" fill="none" stroke="#000" stroke-linecap="round" stroke-linejoin="round" stroke-width="1.5"/>
    <circle id="Ellipse_141" data-name="Ellipse 141" cx="8.103" cy="8.103" r="8.103" transform="translate(1268.604 3720.5)" fill="none" stroke="#000" stroke-linecap="round" stroke-linejoin="round" stroke-width="1.5"/>
    <path id="Path_15583" data-name="Path 15583" d="M1271.5,3766.776l1.62,21.068h16.207l2-27.143h1.488a4.049,4.049,0,0,0,4.019-4.554l-2.641-19.548a8.1,8.1,0,0,0-8.042-7.1h-10a8.043,8.043,0,0,0-2.7.479" transform="translate(24.655 20.172)" fill="none" stroke="#000" stroke-linecap="round" stroke-linejoin="round" stroke-width="1.5"/>
  </g>
</svg>
