<svg xmlns="http://www.w3.org/2000/svg" width="53.5" height="53.5" viewBox="0 0 53.5 53.5">
  <g id="Group_357" data-name="Group 357" transform="translate(-599.75 -3299.75)">
    <line id="Line_247" data-name="Line 247" x2="41" transform="translate(611.5 3341.5)" fill="none" stroke="#000" stroke-linecap="round" stroke-linejoin="round" stroke-width="1.5"/>
    <line id="Line_248" data-name="Line 248" y2="4.483" transform="translate(632.776 3347.121)" fill="none" stroke="#000" stroke-linecap="round" stroke-linejoin="round" stroke-width="1.5"/>
    <line id="Line_249" data-name="Line 249" x2="18" transform="translate(623.5 3352.5)" fill="none" stroke="#000" stroke-linecap="round" stroke-linejoin="round" stroke-width="1.5"/>
    <line id="Line_250" data-name="Line 250" x2="32" transform="translate(604.5 3309.5)" fill="none" stroke="#000" stroke-linecap="round" stroke-linejoin="round" stroke-width="1.5"/>
    <line id="Line_251" data-name="Line 251" y2="20" transform="translate(620.5 3300.5)" fill="none" stroke="#000" stroke-linecap="round" stroke-linejoin="round" stroke-width="1.5"/>
    <line id="Line_252" data-name="Line 252" x2="39" transform="translate(600.5 3320.5)" fill="none" stroke="#000" stroke-linecap="round" stroke-linejoin="round" stroke-width="1.5"/>
    <line id="Line_253" data-name="Line 253" x2="7" transform="translate(604.5 3330.5)" fill="none" stroke="#000" stroke-linecap="round" stroke-linejoin="round" stroke-width="1.5"/>
    <path id="Path_15576" data-name="Path 15576" d="M611.259,3323.81a3.585,3.585,0,0,1,3.586-3.586h25.1a19.724,19.724,0,1,0-28.69,17.554Z" transform="translate(0 0)" fill="none" stroke="#000" stroke-linecap="round" stroke-linejoin="round" stroke-width="1.5"/>
    <path id="Path_15577" data-name="Path 15577" d="M607.293,3323.81a3.585,3.585,0,0,1,3.586-3.586h16.138c0-10.893-4.816-19.724-10.759-19.724s-10.759,8.831-10.759,19.724a32.328,32.328,0,0,0,1.793,10.895Z" transform="translate(3.966 0)" fill="none" stroke="#000" stroke-linecap="round" stroke-linejoin="round" stroke-width="1.5"/>
    <rect id="Rectangle_873" data-name="Rectangle 873" width="41" height="27" rx="2" transform="translate(611.5 3320.5)" fill="none" stroke="#000" stroke-linecap="round" stroke-linejoin="round" stroke-width="1.5"/>
  </g>
</svg>
