<svg xmlns="http://www.w3.org/2000/svg" width="64.7" height="53.5" viewBox="0 0 64.7 53.5">
  <g id="Group_362" data-name="Group 362" transform="translate(-1140.25 -245.129)">
    <ellipse id="Ellipse_142" data-name="Ellipse 142" cx="13" cy="4.5" rx="13" ry="4.5" transform="translate(1141 245.879)" fill="none" stroke="#000" stroke-linecap="round" stroke-linejoin="round" stroke-width="1.5"/>
    <path id="Path_15584" data-name="Path 15584" d="M1167.152,249v5.448c0,2.258-5.553,4.359-13.076,4.359s-13.076-2.1-13.076-4.359V249" transform="translate(0 4.203)" fill="none" stroke="#000" stroke-linecap="round" stroke-linejoin="round" stroke-width="1.5"/>
    <path id="Path_15585" data-name="Path 15585" d="M1167.152,247.5v4.359c0,2.258-5.553,4.359-13.076,4.359s-13.076-2.1-13.076-4.359V247.5" transform="translate(0 2.434)" fill="none" stroke="#000" stroke-linecap="round" stroke-linejoin="round" stroke-width="1.5"/>
    <path id="Path_15586" data-name="Path 15586" d="M1167.152,250v7.628c0,2.258-5.553,4.359-13.076,4.359s-13.076-2.1-13.076-4.359V250" transform="translate(0 5.383)" fill="none" stroke="#000" stroke-linecap="round" stroke-linejoin="round" stroke-width="1.5"/>
    <path id="Path_15587" data-name="Path 15587" d="M1186.51,263.859c0,2.258-7.732,4.359-15.255,4.359S1156,265.027,1156,262.769s7.732-3.269,15.255-3.269S1186.51,261.6,1186.51,263.859Z" transform="translate(17.69 16.586)" fill="none" stroke="#000" stroke-linecap="round" stroke-linejoin="round" stroke-width="1.5"/>
    <path id="Path_15588" data-name="Path 15588" d="M1186.51,262.09v4.359c0,2.258-7.732,4.359-15.255,4.359s-15.255-2.1-15.255-4.359V261" transform="translate(17.69 18.355)" fill="none" stroke="#000" stroke-linecap="round" stroke-linejoin="round" stroke-width="1.5"/>
    <path id="Path_15589" data-name="Path 15589" d="M1186.51,263.5v4.359c0,2.258-7.732,4.359-15.255,4.359s-15.255-2.1-15.255-4.359V263.5" transform="translate(17.69 21.303)" fill="none" stroke="#000" stroke-linecap="round" stroke-linejoin="round" stroke-width="1.5"/>
    <path id="Path_15590" data-name="Path 15590" d="M1186.51,265v5.448c0,2.258-7.732,4.359-15.255,4.359s-15.255-2.1-15.255-4.359V265" transform="translate(17.69 23.072)" fill="none" stroke="#000" stroke-linecap="round" stroke-linejoin="round" stroke-width="1.5"/>
    <path id="Path_15591" data-name="Path 15591" d="M1167.152,253.5v8.717c0,2.258-5.553,4.359-13.076,4.359s-13.076-2.1-13.076-4.359v-8.445" transform="translate(0 9.51)" fill="none" stroke="#000" stroke-linecap="round" stroke-linejoin="round" stroke-width="1.5"/>
    <path id="Path_15592" data-name="Path 15592" d="M1167.152,254.5v2.179c0,2.258-5.553,4.359-13.076,4.359s-13.076-2.1-13.076-4.359V254.5" transform="translate(0 10.69)" fill="none" stroke="#000" stroke-linecap="round" stroke-linejoin="round" stroke-width="1.5"/>
    <line id="Line_260" data-name="Line 260" y1="4.086" transform="translate(1141 267.641)" fill="none" stroke="#000" stroke-linecap="round" stroke-linejoin="round" stroke-width="1.5"/>
    <line id="Line_261" data-name="Line 261" y2="4" transform="translate(1167 267.879)" fill="none" stroke="#000" stroke-linecap="round" stroke-linejoin="round" stroke-width="1.5"/>
    <path id="Path_15593" data-name="Path 15593" d="M1167.152,257.5v4.359c0,2.258-5.553,4.359-13.076,4.359s-13.076-2.1-13.076-4.359V257.5" transform="translate(0 14.228)" fill="none" stroke="#000" stroke-linecap="round" stroke-linejoin="round" stroke-width="1.5"/>
    <path id="Path_15594" data-name="Path 15594" d="M1167.152,259.5v4.359c0,2.258-5.553,4.359-13.076,4.359s-13.076-2.1-13.076-4.359V259.5" transform="translate(0 16.586)" fill="none" stroke="#000" stroke-linecap="round" stroke-linejoin="round" stroke-width="1.5"/>
    <path id="Path_15595" data-name="Path 15595" d="M1167.152,261.5v4.359c0,2.258-5.553,4.359-13.076,4.359s-13.076-2.1-13.076-4.359V261.5" transform="translate(0 18.945)" fill="none" stroke="#000" stroke-linecap="round" stroke-linejoin="round" stroke-width="1.5"/>
    <path id="Path_15596" data-name="Path 15596" d="M1167.152,263.5v3.269c0,2.258-5.553,5.448-13.076,5.448S1141,269.3,1141,267.041V263.5" transform="translate(0 21.303)" fill="none" stroke="#000" stroke-linecap="round" stroke-linejoin="round" stroke-width="1.5"/>
  </g>
</svg>
