<svg xmlns="http://www.w3.org/2000/svg" width="79" height="79" viewBox="0 0 79 79">
  <g id="Group_378" data-name="Group 378" transform="translate(-1200 -119.071)">
    <g id="Euro_2" data-name="Euro 2" transform="translate(1229.04 145.576)">
      <g id="Group_375" data-name="Group 375">
        <path id="Path_15611" data-name="Path 15611" d="M1227.5,136.021c0-4.335-4.078-6.375-7.137-6.375-4.225,0-8.158,2.6-8.158,6.118v14.279c0,3.518,3.933,6.118,8.158,6.118,3.059,0,7.137-2.04,7.137-6.118" transform="translate(-1209.65 -129.646)" fill="none" stroke="#24c39e" stroke-linecap="round" stroke-linejoin="round" stroke-width="2"/>
        <line id="Line_284" data-name="Line 284" x2="12.237" transform="translate(0.51 10.198)" fill="none" stroke="#24c39e" stroke-linecap="round" stroke-linejoin="round" stroke-width="2"/>
        <line id="Line_285" data-name="Line 285" x2="12.747" transform="translate(0 16.317)" fill="none" stroke="#24c39e" stroke-linecap="round" stroke-linejoin="round" stroke-width="2"/>
      </g>
    </g>
    <g id="Bitcoin_2" data-name="Bitcoin 2" transform="translate(1201 120.071)">
      <g id="Group_377" data-name="Group 377" transform="translate(0 0)">
        <g id="Group_376" data-name="Group 376">
          <path id="Path_15612" data-name="Path 15612" d="M1209,125.5" transform="translate(-1187.15 -111.32)" fill="none" stroke="#000" stroke-linecap="round" stroke-linejoin="round" stroke-width="2"/>
          <path id="Path_15613" data-name="Path 15613" d="M1209,134.156c3.756-8.347,10.024-13.656,16.388-13.656" transform="translate(-1187.15 -119.976)" fill="none" stroke="#000" stroke-linecap="round" stroke-linejoin="round" stroke-width="2"/>
          <path id="Path_15614" data-name="Path 15614" d="M1230.123,134.167c-3.755-8.347-8.759-13.667-15.123-13.667" transform="translate(-1176.762 -119.976)" fill="none" stroke="#000" stroke-linecap="round" stroke-linejoin="round" stroke-width="2"/>
          <line id="Line_286" data-name="Line 286" x2="9.56" transform="translate(6.828 16.912)" fill="none" stroke="#000" stroke-linecap="round" stroke-linejoin="round" stroke-width="2"/>
          <line id="Line_287" data-name="Line 287" x2="11" transform="translate(57 17)" fill="none" stroke="#000" stroke-linecap="round" stroke-linejoin="round" stroke-width="2"/>
          <line id="Line_288" data-name="Line 288" y2="11" transform="translate(38)" fill="none" stroke="#000" stroke-linecap="round" stroke-linejoin="round" stroke-width="2"/>
          <path id="Path_15615" data-name="Path 15615" d="M1230.123,143c-3.755,8.347-8.759,15.033-15.123,15.033" transform="translate(-1176.762 -81.029)" fill="none" stroke="#000" stroke-linecap="round" stroke-linejoin="round" stroke-width="2"/>
          <path id="Path_15616" data-name="Path 15616" d="M1208.963,143c3.756,8.347,10.125,15.033,16.489,15.033" transform="translate(-1187.214 -81.029)" fill="none" stroke="#000" stroke-linecap="round" stroke-linejoin="round" stroke-width="2"/>
          <line id="Line_289" data-name="Line 289" x1="11" transform="translate(60 57)" fill="none" stroke="#000" stroke-linecap="round" stroke-linejoin="round" stroke-width="2"/>
          <line id="Line_290" data-name="Line 290" x1="11" transform="translate(5 57)" fill="none" stroke="#000" stroke-linecap="round" stroke-linejoin="round" stroke-width="2"/>
          <line id="Line_291" data-name="Line 291" y1="9.56" transform="translate(38.238 66.075)" fill="none" stroke="#000" stroke-linecap="round" stroke-linejoin="round" stroke-width="2"/>
          <line id="Line_292" data-name="Line 292" x1="9" transform="translate(0 39)" fill="none" stroke="#000" stroke-linecap="round" stroke-linejoin="round" stroke-width="2"/>
          <line id="Line_293" data-name="Line 293" x1="9.56" transform="translate(65.551 38.762)" fill="none" stroke="#000" stroke-linecap="round" stroke-linejoin="round" stroke-width="2"/>
          <circle id="Ellipse_166" data-name="Ellipse 166" cx="38.5" cy="38.5" r="38.5" fill="none" stroke="#000" stroke-linecap="round" stroke-linejoin="round" stroke-width="2"/>
        </g>
        <circle id="Ellipse_167" data-name="Ellipse 167" cx="22" cy="22" r="22" transform="translate(16 17)" fill="none" stroke="#24c39e" stroke-linecap="round" stroke-linejoin="round" stroke-width="2"/>
      </g>
    </g>
  </g>
</svg>
