<svg xmlns="http://www.w3.org/2000/svg" width="105.479" height="64.822" viewBox="0 0 105.479 64.822">
  <g id="Group_429" data-name="Group 429" transform="translate(-508.26 -639.589)">
    <g id="Group_373" data-name="Group 373" transform="translate(509.26 640.589)">
      <path id="Path_15606" data-name="Path 15606" d="M1378.992,3583.323v-.188a54.936,54.936,0,0,0-41.571-19.308h-1.755a2.167,2.167,0,0,1-2.166-2.166v-19.5a2.167,2.167,0,0,1,2.166-2.166h1.755a54.936,54.936,0,0,0,41.571-19.308v62.634Z" transform="translate(-1316.17 -3520.501)" fill="none" stroke="#000" stroke-linecap="round" stroke-linejoin="round" stroke-width="2"/>
      <path id="Rectangle_885" data-name="Rectangle 885" d="M2.087,0H17.133a0,0,0,0,1,0,0V19.418a0,0,0,0,1,0,0H2a2,2,0,0,1-2-2V2.087A2.087,2.087,0,0,1,2.087,0Z" transform="translate(0 21.702)" fill="none" stroke="#000" stroke-linecap="round" stroke-linejoin="round" stroke-width="2"/>
      <path id="Path_15607" data-name="Path 15607" d="M1342.885,3542.044l-.327,1.309a13.477,13.477,0,0,0,1.248,9.845,19.7,19.7,0,0,0,1.79,2.682c.238.3,1,1.146,1,1.146a2.732,2.732,0,0,1-2.342,4.137h-3.813a5.465,5.465,0,0,1-5.333-4.278L1330.5,3539.5" transform="translate(-1319.668 -3498.341)" fill="none" stroke="#000" stroke-linecap="round" stroke-linejoin="round" stroke-width="2"/>
      <line id="Line_282" data-name="Line 282" y2="5.711" transform="translate(6.853 28.556)" fill="none" stroke="#000" stroke-linecap="round" stroke-linejoin="round" stroke-width="2"/>
      <line id="Line_283" data-name="Line 283" y2="5.711" transform="translate(10.28 28.556)" fill="none" stroke="#000" stroke-linecap="round" stroke-linejoin="round" stroke-width="2"/>
    </g>
    <g id="Group_374" data-name="Group 374" transform="translate(584.647 647.97)">
      <path id="Path_15608" data-name="Path 15608" d="M1284.473,3643.656a19.333,19.333,0,0,1,.009,21.28" transform="translate(-1284.473 -3630.841)" fill="none" stroke="#24c39e" stroke-linecap="round" stroke-linejoin="round" stroke-width="2"/>
      <path id="Path_15609" data-name="Path 15609" d="M1287.934,3641.625a31.252,31.252,0,0,1-.065,34.046" transform="translate(-1277.3 -3635.133)" fill="none" stroke="#24c39e" stroke-linecap="round" stroke-linejoin="round" stroke-width="2"/>
      <path id="Path_15610" data-name="Path 15610" d="M1291.259,3639.538a42.965,42.965,0,0,1,.009,46.918" transform="translate(-1270.14 -3639.538)" fill="none" stroke="#24c39e" stroke-linecap="round" stroke-linejoin="round" stroke-width="2"/>
    </g>
  </g>
</svg>
