<svg xmlns="http://www.w3.org/2000/svg" width="83.05" height="82.934" viewBox="0 0 83.05 82.934">
  <g id="Group_367" data-name="Group 367" transform="translate(-59.5 -3479.5)">
    <line id="Line_266" data-name="Line 266" y2="77" transform="translate(98.677 3480.677)" fill="none" stroke="#000" stroke-linecap="round" stroke-linejoin="round" stroke-width="2"/>
    <line id="Line_267" data-name="Line 267" x1="77" transform="translate(60.677 3518.677)" fill="none" stroke="#000" stroke-linecap="round" stroke-linejoin="round" stroke-width="2"/>
    <line id="Line_268" data-name="Line 268" x2="59" transform="translate(69.677 3496.677)" fill="none" stroke="#000" stroke-linecap="round" stroke-linejoin="round" stroke-width="2"/>
    <line id="Line_269" data-name="Line 269" x2="41" transform="translate(65.677 3538.677)" fill="none" stroke="#000" stroke-linecap="round" stroke-linejoin="round" stroke-width="2"/>
    <path id="Path_15600" data-name="Path 15600" d="M107.018,3542.068a12.292,12.292,0,0,1,24.23-2.95,38.281,38.281,0,1,0-32.439,18c5.76,0,10.226-.239,15.127-2.518C109.325,3552.821,107.018,3547.308,107.018,3542.068Z" transform="translate(0 0)" fill="none" stroke="#000" stroke-linecap="round" stroke-linejoin="round" stroke-width="2"/>
    <path id="Path_15601" data-name="Path 15601" d="M96.572,3542.333a12.567,12.567,0,0,1,12.341-12.579c.153,0,.293.038.443.044a65.184,65.184,0,0,0,.925-10.99c0-21.157-9.8-38.308-21.891-38.308S66.5,3497.652,66.5,3518.809s9.8,38.309,21.891,38.309c4.411,0,7.7-1.785,11.137-5.715C97.226,3549.168,96.679,3546.255,96.572,3542.333Z" transform="translate(10.418 0)" fill="none" stroke="#000" stroke-linecap="round" stroke-linejoin="round" stroke-width="2"/>
    <line id="Line_270" data-name="Line 270" x2="11.369" y2="9.948" transform="translate(129.77 3551.075)" fill="none" stroke="#24c39e" stroke-linecap="round" stroke-linejoin="round" stroke-width="2"/>
    <ellipse id="Ellipse_153" data-name="Ellipse 153" cx="12.5" cy="13" rx="12.5" ry="13" transform="translate(106.677 3529.677)" fill="none" stroke="#24c39e" stroke-linecap="round" stroke-linejoin="round" stroke-width="2"/>
  </g>
</svg>
